<svg id="funds" xmlns="http://www.w3.org/2000/svg" width="29.924" height="26.796" viewBox="0 0 29.924 26.796">
  <path id="Path_37" data-name="Path 37" d="M22.878,34.361c0-.006,0-.011,0-.017a.667.667,0,0,0-.017-.082h0a.675.675,0,0,0-.026-.075l-.009-.021c-.008-.018-.017-.035-.026-.052l-.013-.022-.007-.012c-.01-.016-.021-.031-.032-.046l-.006-.008a.658.658,0,0,0-.054-.062l-.011-.011a.681.681,0,0,0-.052-.045L22.61,33.9a.687.687,0,0,0-.075-.049L12.561,28.18,18.3,24.563l9.627,5.472-4.055,2.553a.677.677,0,0,0,.721,1.146l5.012-3.156a.677.677,0,0,0-.026-1.161L18.62,23.186a.677.677,0,0,0-.7.016l-7.038,4.432,0,0L7.366,29.851l0,0L.319,34.288A.677.677,0,0,0,.345,35.45l10.963,6.232a.677.677,0,0,0,.7-.016l5.012-3.156a.677.677,0,1,0-.721-1.146L11.625,40.3,2,34.832,7.74,31.215l10.268,5.837v7.73a.677.677,0,0,0,1.038.573l3.521-2.217a.677.677,0,0,0,.316-.573V34.441s0-.008,0-.012Q22.882,34.4,22.878,34.361Zm-3.516,9.194v-6.9a.677.677,0,0,0-.342-.589L9.04,30.4,11.261,29l9.627,5.472L20.046,35a.677.677,0,1,0,.721,1.146l.762-.48v6.524Z" transform="translate(-0.002 -23.098)" fill="#849fb4"/>
  <path id="Path_38" data-name="Path 38" d="M353.3,155.246l-5.012,3.156a.677.677,0,1,0,.721,1.146l5.012-3.156a.677.677,0,1,0-.721-1.146Z" transform="translate(-324.417 -146.202)" fill="#849fb4"/>
  <path id="Path_39" data-name="Path 39" d="M16.291,230.039l-4.669,2.94L1.012,226.947a.677.677,0,0,0-.669,1.177l10.963,6.232a.677.677,0,0,0,.7-.016l5.012-3.156a.677.677,0,0,0-.721-1.146Z" transform="translate(0 -213.064)" fill="#849fb4"/>
  <path id="Path_40" data-name="Path 40" d="M353.3,195.245l-5.012,3.156a.677.677,0,1,0,.721,1.146l5.012-3.156a.677.677,0,1,0-.721-1.146Z" transform="translate(-324.417 -183.494)" fill="#849fb4"/>
  <path id="Path_41" data-name="Path 41" d="M16.291,270.039l-4.669,2.94L1.012,266.947a.677.677,0,1,0-.669,1.177l10.963,6.232a.677.677,0,0,0,.7-.016l5.012-3.156a.677.677,0,0,0-.721-1.146Z" transform="translate(0 -250.356)" fill="#849fb4"/>
  <path id="Path_42" data-name="Path 42" d="M353.3,235.246l-5.012,3.156a.677.677,0,1,0,.721,1.146l5.012-3.156a.677.677,0,1,0-.721-1.146Z" transform="translate(-324.417 -220.786)" fill="#849fb4"/>
  <path id="Path_43" data-name="Path 43" d="M16.291,310.039l-4.669,2.94L1.012,306.948a.677.677,0,1,0-.669,1.177l10.963,6.232a.677.677,0,0,0,.7-.016l5.012-3.156a.677.677,0,0,0-.721-1.146Z" transform="translate(0 -287.648)" fill="#849fb4"/>
</svg>
