<svg id="locked-padlock_1_" data-name="locked-padlock (1)" xmlns="http://www.w3.org/2000/svg" width="21.634" height="28.673" viewBox="0 0 21.634 28.673">
  <g id="Group_145" data-name="Group 145" transform="translate(0)">
    <path id="Path_54" data-name="Path 54" d="M62.878,9.779H60.836V5.548A5.554,5.554,0,0,0,55.288,0H50.916a5.554,5.554,0,0,0-5.548,5.548V9.779H43.325a1.04,1.04,0,0,0-1.04,1.04V20.982a7.7,7.7,0,0,0,7.691,7.691h6.252a7.7,7.7,0,0,0,7.691-7.691V10.819A1.04,1.04,0,0,0,62.878,9.779ZM47.449,5.548a3.471,3.471,0,0,1,3.467-3.467h4.372a3.471,3.471,0,0,1,3.467,3.467V9.779H47.449ZM61.838,20.982a5.617,5.617,0,0,1-5.61,5.61H49.976a5.617,5.617,0,0,1-5.61-5.61V11.86H61.838Z" transform="translate(-42.285)" fill="#849fb4"/>
    <path id="Path_55" data-name="Path 55" d="M157.57,227.111a1.04,1.04,0,1,0,2.081,0v-2.97a1.039,1.039,0,0,0-.843-1.649h-.4a1.039,1.039,0,0,0-.843,1.649Z" transform="translate(-147.793 -203.974)" fill="#849fb4"/>
  </g>
</svg>
