<svg xmlns="http://www.w3.org/2000/svg" width="27.473" height="27.255" viewBox="0 0 27.473 27.255">
  <path id="Path_188" data-name="Path 188" d="M13.6,15.477a3.492,3.492,0,1,1,3.492-3.492A3.492,3.492,0,0,1,13.6,15.477ZM8.164,20.522v1.552H19.03V20.522a3.88,3.88,0,0,0-3.88-3.88h-3.1A3.88,3.88,0,0,0,8.164,20.522ZM25.624,9.073a13.629,13.629,0,0,0-24.446.787,1,1,0,0,0,1.827.828A11.626,11.626,0,0,1,23.8,9.9l-1.788.81,4.877,3.5.589-5.971Zm-.277,11.138A1,1,0,0,0,24,20.66a11.625,11.625,0,0,1-20.389.768l1.757-.877-5-3.311L0,23.23l1.815-.905A13.63,13.63,0,0,0,25.8,21.556,1,1,0,0,0,25.347,20.211Z" transform="translate(0 -1.85)" fill="#849fb4"/>
</svg>
