<svg id="verification-window-button" xmlns="http://www.w3.org/2000/svg" width="28.382" height="27.565" viewBox="0 0 28.382 27.565">
  <g id="Group_144" data-name="Group 144" transform="translate(0 0)">
    <g id="Group_139" data-name="Group 139" transform="translate(23.094 3.05)">
      <ellipse id="Ellipse_13" data-name="Ellipse 13" cx="1.017" cy="1.017" rx="1.017" ry="1.017" transform="translate(0.024 0.024)" fill="#849fb4"/>
      <path id="Path_47" data-name="Path 47" d="M482.764,74.219a1.041,1.041,0,1,1,1.041-1.041A1.042,1.042,0,0,1,482.764,74.219Zm0-2.034a.993.993,0,1,0,.993.993A.994.994,0,0,0,482.764,72.185Z" transform="translate(-481.723 -72.137)" fill="none"/>
    </g>
    <g id="Group_140" data-name="Group 140" transform="translate(20.063 3.05)">
      <ellipse id="Ellipse_14" data-name="Ellipse 14" cx="1.017" cy="1.017" rx="1.017" ry="1.017" transform="translate(0.024 0.024)" fill="#849fb4"/>
      <path id="Path_48" data-name="Path 48" d="M419.524,74.219a1.041,1.041,0,1,1,1.041-1.041A1.042,1.042,0,0,1,419.524,74.219Zm0-2.034a.993.993,0,1,0,.993.993A.994.994,0,0,0,419.524,72.185Z" transform="translate(-418.483 -72.137)" fill="none"/>
    </g>
    <g id="Group_141" data-name="Group 141" transform="translate(17.031 3.05)">
      <ellipse id="Ellipse_15" data-name="Ellipse 15" cx="1.017" cy="1.017" rx="1.017" ry="1.017" transform="translate(0.024 0.024)" fill="#849fb4"/>
      <path id="Path_49" data-name="Path 49" d="M356.285,74.219a1.041,1.041,0,1,1,1.041-1.041A1.042,1.042,0,0,1,356.285,74.219Zm0-2.034a.993.993,0,1,0,.993.993A.994.994,0,0,0,356.285,72.185Z" transform="translate(-355.244 -72.137)" fill="none"/>
    </g>
    <g id="Group_142" data-name="Group 142">
      <path id="Path_50" data-name="Path 50" d="M3.287,36.536H26.047a2.791,2.791,0,0,0,2.787-2.787V11.806a2.79,2.79,0,0,0-2.787-2.787H3.287A2.79,2.79,0,0,0,.5,11.806V33.749A2.791,2.791,0,0,0,3.287,36.536ZM26.78,33.749a.733.733,0,0,1-.734.733H3.287a.733.733,0,0,1-.734-.733V17H26.78V33.749ZM2.554,11.806a.733.733,0,0,1,.734-.733H26.047a.733.733,0,0,1,.733.733v3.139H2.554Z" transform="translate(-0.476 -8.995)" fill="#849fb4"/>
      <path id="Path_51" data-name="Path 51" d="M25.571,36.084H2.811A2.814,2.814,0,0,1,0,33.273V11.33A2.814,2.814,0,0,1,2.811,8.519H25.571a2.814,2.814,0,0,1,2.811,2.811V33.273A2.814,2.814,0,0,1,25.571,36.084ZM2.811,8.567A2.766,2.766,0,0,0,.048,11.33V33.273a2.766,2.766,0,0,0,2.763,2.763H25.571a2.766,2.766,0,0,0,2.763-2.763V11.33a2.766,2.766,0,0,0-2.763-2.763ZM25.571,34.03H2.811a.758.758,0,0,1-.757-.757V16.5H26.328V33.273A.758.758,0,0,1,25.571,34.03ZM2.1,16.547V33.273a.71.71,0,0,0,.71.709H25.571a.71.71,0,0,0,.71-.709V16.547Zm24.226-2.054H2.054V11.33a.758.758,0,0,1,.757-.757H25.571a.758.758,0,0,1,.757.757v3.163ZM2.1,14.446H26.28V11.33a.71.71,0,0,0-.71-.71H2.811a.71.71,0,0,0-.71.71Z" transform="translate(0 -8.519)" fill="none"/>
    </g>
    <g id="Group_143" data-name="Group 143" transform="translate(7.541 11.485)">
      <path id="Path_52" data-name="Path 52" d="M161.6,258.023a1.027,1.027,0,0,0,1.452,0l5.427-5.427,2.257-2.257a1.027,1.027,0,0,0-1.452-1.452l-6.958,6.958-2.783-2.783a1.027,1.027,0,1,0-1.452,1.452Z" transform="translate(-157.77 -248.561)" fill="#849fb4"/>
      <path id="Path_53" data-name="Path 53" d="M161.863,257.87a1.044,1.044,0,0,1-.743-.308l-3.51-3.51a1.051,1.051,0,0,1,1.486-1.486l2.767,2.766,6.942-6.941a1.051,1.051,0,1,1,1.486,1.486l-7.685,7.685A1.044,1.044,0,0,1,161.863,257.87Zm-3.51-5.563a1,1,0,0,0-.709,1.712l3.51,3.51a1,1,0,0,0,1.418,0l7.685-7.685a1,1,0,0,0-1.418-1.418l-6.975,6.975-2.8-2.8A1,1,0,0,0,158.354,252.307Z" transform="translate(-157.304 -248.084)" fill="none"/>
    </g>
  </g>
</svg>
